<mxfile host="Electron" modified="2025-04-23T20:24:40.489Z" agent="Mozilla/5.0 (Windows NT 10.0; Win64; x64) AppleWebKit/537.36 (KHTML, like Gecko) draw.io/23.0.2 Chrome/120.0.6099.109 Electron/28.1.0 Safari/537.36" etag="oFpxETGxypwHQVRxyd7J" version="23.0.2" type="device" pages="3">
  <diagram name="Page-1" id="tSJDaUTyEM30BhE4bTiS">
    <mxGraphModel dx="1749" dy="1202" grid="1" gridSize="10" guides="1" tooltips="1" connect="1" arrows="1" fold="1" page="1" pageScale="1" pageWidth="3300" pageHeight="2339" math="1" shadow="0">
      <root>
        <mxCell id="0" />
        <mxCell id="1" parent="0" />
        <mxCell id="kYPE0RamwCuKylcKAm2e-1" value="Function" style="text;html=1;strokeColor=none;fillColor=none;align=center;verticalAlign=middle;whiteSpace=wrap;rounded=0;fontSize=16;fontStyle=1" parent="1" vertex="1">
          <mxGeometry x="282.5" y="120" width="100" height="30" as="geometry" />
        </mxCell>
        <mxCell id="kYPE0RamwCuKylcKAm2e-2" value="" style="ellipse;whiteSpace=wrap;html=1;" parent="1" vertex="1">
          <mxGeometry x="247.5" y="230" width="40" height="120" as="geometry" />
        </mxCell>
        <mxCell id="kYPE0RamwCuKylcKAm2e-3" value="Domain&lt;br&gt;\(X\)" style="text;html=1;strokeColor=none;fillColor=none;align=center;verticalAlign=middle;whiteSpace=wrap;rounded=0;" parent="1" vertex="1">
          <mxGeometry x="237.5" y="190" width="60" height="30" as="geometry" />
        </mxCell>
        <mxCell id="kYPE0RamwCuKylcKAm2e-4" value="1&lt;br&gt;&lt;br&gt;2&lt;br&gt;&lt;br&gt;3&lt;br&gt;&lt;br&gt;4" style="text;html=1;strokeColor=none;fillColor=none;align=center;verticalAlign=middle;whiteSpace=wrap;rounded=0;" parent="1" vertex="1">
          <mxGeometry x="237.5" y="230" width="60" height="120" as="geometry" />
        </mxCell>
        <mxCell id="kYPE0RamwCuKylcKAm2e-5" value="Codomain&lt;br&gt;\(Y\)" style="text;html=1;strokeColor=none;fillColor=none;align=center;verticalAlign=middle;whiteSpace=wrap;rounded=0;" parent="1" vertex="1">
          <mxGeometry x="382.5" y="190" width="60" height="30" as="geometry" />
        </mxCell>
        <mxCell id="kYPE0RamwCuKylcKAm2e-6" value="" style="ellipse;whiteSpace=wrap;html=1;" parent="1" vertex="1">
          <mxGeometry x="392.5" y="230" width="40" height="120" as="geometry" />
        </mxCell>
        <mxCell id="kYPE0RamwCuKylcKAm2e-7" value="1&lt;br&gt;&lt;br&gt;4&lt;br&gt;&lt;br&gt;9&lt;br&gt;&lt;br&gt;16" style="text;html=1;strokeColor=none;fillColor=none;align=center;verticalAlign=middle;whiteSpace=wrap;rounded=0;" parent="1" vertex="1">
          <mxGeometry x="382.5" y="230" width="60" height="120" as="geometry" />
        </mxCell>
        <mxCell id="kYPE0RamwCuKylcKAm2e-8" value="\(f: X \rightarrow Y\)" style="text;html=1;strokeColor=none;fillColor=none;align=center;verticalAlign=middle;whiteSpace=wrap;rounded=0;" parent="1" vertex="1">
          <mxGeometry x="312.5" y="180" width="60" height="30" as="geometry" />
        </mxCell>
        <mxCell id="kYPE0RamwCuKylcKAm2e-9" value="\(f(x) = x^2\)" style="text;html=1;strokeColor=none;fillColor=none;align=center;verticalAlign=middle;whiteSpace=wrap;rounded=0;" parent="1" vertex="1">
          <mxGeometry x="312.5" y="200" width="60" height="30" as="geometry" />
        </mxCell>
        <mxCell id="kYPE0RamwCuKylcKAm2e-10" value="" style="endArrow=classic;html=1;rounded=0;" parent="1" edge="1">
          <mxGeometry width="50" height="50" relative="1" as="geometry">
            <mxPoint x="273.5" y="247" as="sourcePoint" />
            <mxPoint x="406.5" y="249" as="targetPoint" />
          </mxGeometry>
        </mxCell>
        <mxCell id="kYPE0RamwCuKylcKAm2e-11" value="" style="endArrow=classic;html=1;rounded=0;" parent="1" edge="1">
          <mxGeometry width="50" height="50" relative="1" as="geometry">
            <mxPoint x="272.5" y="276" as="sourcePoint" />
            <mxPoint x="403.5" y="277" as="targetPoint" />
          </mxGeometry>
        </mxCell>
        <mxCell id="kYPE0RamwCuKylcKAm2e-12" value="" style="endArrow=classic;html=1;rounded=0;" parent="1" edge="1">
          <mxGeometry width="50" height="50" relative="1" as="geometry">
            <mxPoint x="274.5" y="303" as="sourcePoint" />
            <mxPoint x="405.5" y="304" as="targetPoint" />
          </mxGeometry>
        </mxCell>
        <mxCell id="kYPE0RamwCuKylcKAm2e-13" value="" style="endArrow=classic;html=1;rounded=0;" parent="1" edge="1">
          <mxGeometry width="50" height="50" relative="1" as="geometry">
            <mxPoint x="273.5" y="333" as="sourcePoint" />
            <mxPoint x="404.5" y="334" as="targetPoint" />
          </mxGeometry>
        </mxCell>
        <mxCell id="kYPE0RamwCuKylcKAm2e-14" value="&lt;span style=&quot;font-family: Helvetica; font-size: 12px; font-style: normal; font-variant-ligatures: normal; font-variant-caps: normal; font-weight: 400; letter-spacing: normal; orphans: 2; text-indent: 0px; text-transform: none; widows: 2; word-spacing: 0px; -webkit-text-stroke-width: 0px; text-decoration-thickness: initial; text-decoration-style: initial; text-decoration-color: initial; float: none; display: inline !important;&quot;&gt;&lt;span&gt;&amp;nbsp;&lt;/span&gt;each element of \(X\) is map to EXACTLY ONE element of \(Y\)&lt;/span&gt;" style="text;whiteSpace=wrap;html=1;align=center;labelBackgroundColor=none;fontColor=default;" parent="1" vertex="1">
          <mxGeometry x="175" y="370" width="330" height="40" as="geometry" />
        </mxCell>
        <mxCell id="kYPE0RamwCuKylcKAm2e-15" value="" style="ellipse;whiteSpace=wrap;html=1;" parent="1" vertex="1">
          <mxGeometry x="600" y="230" width="40" height="120" as="geometry" />
        </mxCell>
        <mxCell id="kYPE0RamwCuKylcKAm2e-16" value="Domain&lt;br&gt;\(X\)" style="text;html=1;strokeColor=none;fillColor=none;align=center;verticalAlign=middle;whiteSpace=wrap;rounded=0;" parent="1" vertex="1">
          <mxGeometry x="590" y="190" width="60" height="30" as="geometry" />
        </mxCell>
        <mxCell id="kYPE0RamwCuKylcKAm2e-17" value="1&lt;br&gt;&lt;br&gt;&lt;br&gt;&lt;br&gt;4&lt;br&gt;&lt;br&gt;" style="text;html=1;strokeColor=none;fillColor=none;align=center;verticalAlign=middle;whiteSpace=wrap;rounded=0;" parent="1" vertex="1">
          <mxGeometry x="590" y="230" width="60" height="120" as="geometry" />
        </mxCell>
        <mxCell id="kYPE0RamwCuKylcKAm2e-18" value="Codomain&lt;br&gt;\(Y\)" style="text;html=1;strokeColor=none;fillColor=none;align=center;verticalAlign=middle;whiteSpace=wrap;rounded=0;" parent="1" vertex="1">
          <mxGeometry x="735" y="190" width="60" height="30" as="geometry" />
        </mxCell>
        <mxCell id="kYPE0RamwCuKylcKAm2e-19" value="" style="ellipse;whiteSpace=wrap;html=1;" parent="1" vertex="1">
          <mxGeometry x="745" y="230" width="40" height="120" as="geometry" />
        </mxCell>
        <mxCell id="kYPE0RamwCuKylcKAm2e-20" value="1&lt;br&gt;&lt;br&gt;-1&lt;br&gt;&lt;br&gt;2&lt;br&gt;&lt;br&gt;-2" style="text;html=1;strokeColor=none;fillColor=none;align=center;verticalAlign=middle;whiteSpace=wrap;rounded=0;" parent="1" vertex="1">
          <mxGeometry x="735" y="230" width="60" height="120" as="geometry" />
        </mxCell>
        <mxCell id="kYPE0RamwCuKylcKAm2e-21" value="\(f: X \rightarrow Y\)" style="text;html=1;strokeColor=none;fillColor=none;align=center;verticalAlign=middle;whiteSpace=wrap;rounded=0;" parent="1" vertex="1">
          <mxGeometry x="665" y="180" width="60" height="30" as="geometry" />
        </mxCell>
        <mxCell id="kYPE0RamwCuKylcKAm2e-22" value="\(f(x) = \pm \sqrt{x}\)" style="text;html=1;strokeColor=none;fillColor=none;align=center;verticalAlign=middle;whiteSpace=wrap;rounded=0;" parent="1" vertex="1">
          <mxGeometry x="665" y="200" width="60" height="30" as="geometry" />
        </mxCell>
        <mxCell id="kYPE0RamwCuKylcKAm2e-23" value="" style="endArrow=classic;html=1;rounded=0;" parent="1" edge="1">
          <mxGeometry width="50" height="50" relative="1" as="geometry">
            <mxPoint x="626" y="253" as="sourcePoint" />
            <mxPoint x="761" y="250" as="targetPoint" />
          </mxGeometry>
        </mxCell>
        <mxCell id="kYPE0RamwCuKylcKAm2e-24" value="" style="endArrow=classic;html=1;rounded=0;" parent="1" edge="1">
          <mxGeometry width="50" height="50" relative="1" as="geometry">
            <mxPoint x="627" y="312" as="sourcePoint" />
            <mxPoint x="757" y="307" as="targetPoint" />
          </mxGeometry>
        </mxCell>
        <mxCell id="kYPE0RamwCuKylcKAm2e-25" value="This is not a function" style="text;html=1;strokeColor=none;fillColor=none;align=center;verticalAlign=middle;whiteSpace=wrap;rounded=0;fontColor=#FF3333;" parent="1" vertex="1">
          <mxGeometry x="632.5" y="360" width="125" height="30" as="geometry" />
        </mxCell>
        <mxCell id="kYPE0RamwCuKylcKAm2e-26" value="" style="endArrow=classic;html=1;rounded=0;" parent="1" edge="1">
          <mxGeometry width="50" height="50" relative="1" as="geometry">
            <mxPoint x="625" y="255" as="sourcePoint" />
            <mxPoint x="755" y="277" as="targetPoint" />
          </mxGeometry>
        </mxCell>
        <mxCell id="kYPE0RamwCuKylcKAm2e-27" value="" style="endArrow=classic;html=1;rounded=0;" parent="1" edge="1">
          <mxGeometry width="50" height="50" relative="1" as="geometry">
            <mxPoint x="627" y="313" as="sourcePoint" />
            <mxPoint x="755" y="333" as="targetPoint" />
          </mxGeometry>
        </mxCell>
        <mxCell id="kYPE0RamwCuKylcKAm2e-28" value="is a&amp;nbsp;multi-valued function" style="text;html=1;strokeColor=none;fillColor=none;align=center;verticalAlign=middle;whiteSpace=wrap;rounded=0;" parent="1" vertex="1">
          <mxGeometry x="620" y="390" width="150" height="30" as="geometry" />
        </mxCell>
      </root>
    </mxGraphModel>
  </diagram>
  <diagram id="Gws84lwjbNGy393iKERc" name="mapping-sets">
    <mxGraphModel dx="700" dy="481" grid="1" gridSize="10" guides="1" tooltips="1" connect="1" arrows="1" fold="1" page="1" pageScale="1" pageWidth="3300" pageHeight="2339" math="1" shadow="0">
      <root>
        <mxCell id="0" />
        <mxCell id="1" parent="0" />
        <mxCell id="GC1fflrFimGgXyT_DWg3-1" value="" style="rounded=0;whiteSpace=wrap;html=1;" vertex="1" parent="1">
          <mxGeometry x="100" y="40" width="150" height="110" as="geometry" />
        </mxCell>
        <mxCell id="GC1fflrFimGgXyT_DWg3-2" value="\(E\)" style="ellipse;whiteSpace=wrap;html=1;aspect=fixed;fillColor=#f8cecc;strokeColor=#b85450;" vertex="1" parent="1">
          <mxGeometry x="173" y="63" width="28" height="28" as="geometry" />
        </mxCell>
        <mxCell id="GC1fflrFimGgXyT_DWg3-8" value="\(X\) (domain)" style="text;html=1;strokeColor=none;fillColor=none;align=center;verticalAlign=middle;whiteSpace=wrap;rounded=0;" vertex="1" parent="1">
          <mxGeometry x="129" y="150" width="92" height="30" as="geometry" />
        </mxCell>
        <mxCell id="GC1fflrFimGgXyT_DWg3-9" value="" style="rounded=0;whiteSpace=wrap;html=1;" vertex="1" parent="1">
          <mxGeometry x="320" y="40" width="150" height="110" as="geometry" />
        </mxCell>
        <mxCell id="GC1fflrFimGgXyT_DWg3-10" value="\(F = f(E)\)" style="ellipse;whiteSpace=wrap;html=1;aspect=fixed;fillColor=#f8cecc;strokeColor=#b85450;" vertex="1" parent="1">
          <mxGeometry x="340" y="70" width="70" height="70" as="geometry" />
        </mxCell>
        <mxCell id="GC1fflrFimGgXyT_DWg3-11" value="\(Y\) (codomain)" style="text;html=1;strokeColor=none;fillColor=none;align=center;verticalAlign=middle;whiteSpace=wrap;rounded=0;" vertex="1" parent="1">
          <mxGeometry x="349" y="150" width="92" height="30" as="geometry" />
        </mxCell>
        <mxCell id="GC1fflrFimGgXyT_DWg3-12" value="" style="endArrow=none;html=1;rounded=0;exitX=0.5;exitY=0;exitDx=0;exitDy=0;entryX=0.5;entryY=0;entryDx=0;entryDy=0;dashed=1;fillColor=#f8cecc;strokeColor=#b85450;" edge="1" parent="1" source="GC1fflrFimGgXyT_DWg3-2" target="GC1fflrFimGgXyT_DWg3-10">
          <mxGeometry width="50" height="50" relative="1" as="geometry">
            <mxPoint x="230" y="260" as="sourcePoint" />
            <mxPoint x="280" y="210" as="targetPoint" />
          </mxGeometry>
        </mxCell>
        <mxCell id="GC1fflrFimGgXyT_DWg3-13" value="" style="endArrow=none;html=1;rounded=0;exitX=0.5;exitY=1;exitDx=0;exitDy=0;entryX=0.363;entryY=0.992;entryDx=0;entryDy=0;dashed=1;fillColor=#f8cecc;strokeColor=#b85450;entryPerimeter=0;" edge="1" parent="1" source="GC1fflrFimGgXyT_DWg3-2" target="GC1fflrFimGgXyT_DWg3-10">
          <mxGeometry width="50" height="50" relative="1" as="geometry">
            <mxPoint x="197" y="70" as="sourcePoint" />
            <mxPoint x="405" y="100" as="targetPoint" />
          </mxGeometry>
        </mxCell>
        <mxCell id="GC1fflrFimGgXyT_DWg3-14" value="\(f: X \rightarrow Y\)" style="text;html=1;strokeColor=none;fillColor=none;align=center;verticalAlign=middle;whiteSpace=wrap;rounded=0;" vertex="1" parent="1">
          <mxGeometry x="240" y="170" width="90" height="30" as="geometry" />
        </mxCell>
        <mxCell id="GC1fflrFimGgXyT_DWg3-15" value="mapping from \(X\) to \(Y\)" style="text;html=1;strokeColor=none;fillColor=none;align=center;verticalAlign=middle;whiteSpace=wrap;rounded=0;" vertex="1" parent="1">
          <mxGeometry x="215" y="200" width="140" height="30" as="geometry" />
        </mxCell>
      </root>
    </mxGraphModel>
  </diagram>
  <diagram name="reverse-mapping-sets" id="oqShb__n0TxV1wlhYel6">
    <mxGraphModel dx="407" dy="280" grid="1" gridSize="10" guides="1" tooltips="1" connect="1" arrows="1" fold="1" page="1" pageScale="1" pageWidth="3300" pageHeight="2339" math="1" shadow="0">
      <root>
        <mxCell id="z0AI3a1FtYVdgMU0xo1n-0" />
        <mxCell id="z0AI3a1FtYVdgMU0xo1n-1" parent="z0AI3a1FtYVdgMU0xo1n-0" />
        <mxCell id="z0AI3a1FtYVdgMU0xo1n-2" value="" style="rounded=0;whiteSpace=wrap;html=1;" vertex="1" parent="z0AI3a1FtYVdgMU0xo1n-1">
          <mxGeometry x="100" y="40" width="150" height="110" as="geometry" />
        </mxCell>
        <mxCell id="z0AI3a1FtYVdgMU0xo1n-3" value="\(E=f^{-1}(F)\)" style="ellipse;whiteSpace=wrap;html=1;aspect=fixed;fillColor=#f8cecc;strokeColor=#b85450;" vertex="1" parent="z0AI3a1FtYVdgMU0xo1n-1">
          <mxGeometry x="138" y="60" width="77" height="77" as="geometry" />
        </mxCell>
        <mxCell id="z0AI3a1FtYVdgMU0xo1n-4" value="\(X\) (domain)" style="text;html=1;strokeColor=none;fillColor=none;align=center;verticalAlign=middle;whiteSpace=wrap;rounded=0;" vertex="1" parent="z0AI3a1FtYVdgMU0xo1n-1">
          <mxGeometry x="129" y="150" width="92" height="30" as="geometry" />
        </mxCell>
        <mxCell id="z0AI3a1FtYVdgMU0xo1n-5" value="" style="rounded=0;whiteSpace=wrap;html=1;" vertex="1" parent="z0AI3a1FtYVdgMU0xo1n-1">
          <mxGeometry x="320" y="40" width="150" height="110" as="geometry" />
        </mxCell>
        <mxCell id="z0AI3a1FtYVdgMU0xo1n-6" value="\(F\)" style="ellipse;whiteSpace=wrap;html=1;aspect=fixed;fillColor=#f8cecc;strokeColor=#b85450;" vertex="1" parent="z0AI3a1FtYVdgMU0xo1n-1">
          <mxGeometry x="349" y="50" width="40" height="40" as="geometry" />
        </mxCell>
        <mxCell id="z0AI3a1FtYVdgMU0xo1n-7" value="\(Y\) (codomain)" style="text;html=1;strokeColor=none;fillColor=none;align=center;verticalAlign=middle;whiteSpace=wrap;rounded=0;" vertex="1" parent="z0AI3a1FtYVdgMU0xo1n-1">
          <mxGeometry x="349" y="150" width="92" height="30" as="geometry" />
        </mxCell>
        <mxCell id="z0AI3a1FtYVdgMU0xo1n-8" value="" style="endArrow=none;html=1;rounded=0;exitX=0.661;exitY=0.021;exitDx=0;exitDy=0;entryX=0.5;entryY=0;entryDx=0;entryDy=0;dashed=1;fillColor=#f8cecc;strokeColor=#b85450;exitPerimeter=0;" edge="1" parent="z0AI3a1FtYVdgMU0xo1n-1" source="z0AI3a1FtYVdgMU0xo1n-3" target="z0AI3a1FtYVdgMU0xo1n-6">
          <mxGeometry width="50" height="50" relative="1" as="geometry">
            <mxPoint x="230" y="260" as="sourcePoint" />
            <mxPoint x="280" y="210" as="targetPoint" />
          </mxGeometry>
        </mxCell>
        <mxCell id="z0AI3a1FtYVdgMU0xo1n-9" value="" style="endArrow=none;html=1;rounded=0;exitX=0.5;exitY=1;exitDx=0;exitDy=0;entryX=0.363;entryY=0.992;entryDx=0;entryDy=0;dashed=1;fillColor=#f8cecc;strokeColor=#b85450;entryPerimeter=0;" edge="1" parent="z0AI3a1FtYVdgMU0xo1n-1" source="z0AI3a1FtYVdgMU0xo1n-3" target="z0AI3a1FtYVdgMU0xo1n-6">
          <mxGeometry width="50" height="50" relative="1" as="geometry">
            <mxPoint x="197" y="70" as="sourcePoint" />
            <mxPoint x="405" y="100" as="targetPoint" />
          </mxGeometry>
        </mxCell>
        <mxCell id="z0AI3a1FtYVdgMU0xo1n-10" value="\(f^{-1}: X \rightarrow Y\)" style="text;html=1;strokeColor=none;fillColor=none;align=center;verticalAlign=middle;whiteSpace=wrap;rounded=0;" vertex="1" parent="z0AI3a1FtYVdgMU0xo1n-1">
          <mxGeometry x="240" y="170" width="90" height="30" as="geometry" />
        </mxCell>
        <mxCell id="z0AI3a1FtYVdgMU0xo1n-11" value="mapping from \(X\) to \(Y\)" style="text;html=1;strokeColor=none;fillColor=none;align=center;verticalAlign=middle;whiteSpace=wrap;rounded=0;" vertex="1" parent="z0AI3a1FtYVdgMU0xo1n-1">
          <mxGeometry x="215" y="200" width="140" height="30" as="geometry" />
        </mxCell>
      </root>
    </mxGraphModel>
  </diagram>
</mxfile>
